<svg xmlns="http://www.w3.org/2000/svg" width="20" height="20" viewBox="0 0 20 20"><defs><style>.a{fill:#17479e;}</style></defs><path class="a" d="M19.989.726A.825.825,0,0,0,19.938.52a.026.026,0,0,1,0-.006h0a.848.848,0,0,0-.113-.188C19.812.311,19.8.3,19.79.285A.85.85,0,0,0,19.63.141l-.005,0a.821.821,0,0,0-.189-.09l-.05-.015A.831.831,0,0,0,19.167,0H13.333a.833.833,0,0,0,0,1.667h3.821L12.181,6.64a7.5,7.5,0,1,0,1.178,1.179l4.974-4.974V6.667a.833.833,0,1,0,1.667,0V.833c0-.017,0-.034-.005-.051S19.992.745,19.989.726ZM7.5,18.333A5.837,5.837,0,1,1,13.333,12.5,5.84,5.84,0,0,1,7.5,18.333Zm0,0"/></svg>